# xmcd
#
# Track frame offsets:
# 150
# 19182
# 36197
# 50685
# 71150
# 89165
# 107637
# 128710
# 146512
# 162717
# 185960
# 205700
#
# Disc length: 3146 seconds
#
# Revision: 0
# Processed by: cddbd v1.4b42PL0 Copyright (c) Steve Scherf et al.
# Submitted via: Audion 2.5.0 (http://www.panic.com/audion/)
#
DISCID=ba0c480c
DTITLE=Joydrop - Viberate (1997 Promo)
DYEAR=1900
DGENRE=
TTITLE0=Thick Skin
TTITLE1=American Dream Girl
TTITLE2=Sometimes Wanna Die
TTITLE3=Life On The Sun
TTITLE4=Swan Song
TTITLE5=Replaced
TTITLE6=Viberate
TTITLE7=This Is Not Real
TTITLE8=Expiry Dates
TTITLE9=Do You Believe
TTITLE10=Embrace
TTITLE11=Metasexual
EXTD=
EXTT0=
EXTT1=
EXTT2=
EXTT3=
EXTT4=
EXTT5=
EXTT6=
EXTT7=
EXTT8=
EXTT9=
EXTT10=
EXTT11=
PLAYORDER=
